<svg id="svgQrWrapper" viewBox="0 0 300 300" xmlns="http://www.w3.org/2000/svg" xmlns:xlink="http://www.w3.org/1999/xlink" style="width: 100%; height: 100%; background-color: rgb(255, 255, 255);"><svg><g transform="translate(9, 9)scale(0.95)" fill="none"><svg width="300" height="300"><style>.background-color{ fill: #fff; }.dot-color{ fill: #000000; }.corners-square-color-0-0{ fill: #000000; }.corners-dot-color-0-0{ fill: #000000; }.corners-square-color-1-0{ fill: #000000; }.corners-dot-color-1-0{ fill: #000000; }.corners-square-color-0-1{ fill: #000000; }.corners-dot-color-0-1{ fill: #000000; }</style><defs/><g class="dot-color"><rect x="0" y="120" width="12" height="12" transform="rotate(0,6,126)"/><rect x="0" y="156" width="12" height="12" transform="rotate(0,6,162)"/><rect x="0" y="168" width="12" height="12" transform="rotate(0,6,174)"/><rect x="0" y="180" width="12" height="12" transform="rotate(0,6,186)"/><rect x="0" y="192" width="12" height="12" transform="rotate(0,6,198)"/><rect x="12" y="108" width="12" height="12" transform="rotate(0,18,114)"/><rect x="12" y="168" width="12" height="12" transform="rotate(0,18,174)"/><rect x="12" y="180" width="12" height="12" transform="rotate(0,18,186)"/><rect x="12" y="192" width="12" height="12" transform="rotate(0,18,198)"/><rect x="24" y="96" width="12" height="12" transform="rotate(0,30,102)"/><rect x="24" y="132" width="12" height="12" transform="rotate(0,30,138)"/><rect x="36" y="108" width="12" height="12" transform="rotate(0,42,114)"/><rect x="36" y="144" width="12" height="12" transform="rotate(0,42,150)"/><rect x="36" y="168" width="12" height="12" transform="rotate(0,42,174)"/><rect x="48" y="108" width="12" height="12" transform="rotate(0,54,114)"/><rect x="48" y="144" width="12" height="12" transform="rotate(0,54,150)"/><rect x="48" y="180" width="12" height="12" transform="rotate(0,54,186)"/><rect x="60" y="120" width="12" height="12" transform="rotate(0,66,126)"/><rect x="60" y="132" width="12" height="12" transform="rotate(0,66,138)"/><rect x="60" y="144" width="12" height="12" transform="rotate(0,66,150)"/><rect x="60" y="180" width="12" height="12" transform="rotate(0,66,186)"/><rect x="60" y="192" width="12" height="12" transform="rotate(0,66,198)"/><rect x="72" y="96" width="12" height="12" transform="rotate(0,78,102)"/><rect x="72" y="120" width="12" height="12" transform="rotate(0,78,126)"/><rect x="72" y="144" width="12" height="12" transform="rotate(0,78,150)"/><rect x="72" y="168" width="12" height="12" transform="rotate(0,78,174)"/><rect x="72" y="192" width="12" height="12" transform="rotate(0,78,198)"/><rect x="84" y="96" width="12" height="12" transform="rotate(0,90,102)"/><rect x="84" y="132" width="12" height="12" transform="rotate(0,90,138)"/><rect x="84" y="156" width="12" height="12" transform="rotate(0,90,162)"/><rect x="84" y="168" width="12" height="12" transform="rotate(0,90,174)"/><rect x="84" y="192" width="12" height="12" transform="rotate(0,90,198)"/><rect x="96" y="0" width="12" height="12" transform="rotate(0,102,6)"/><rect x="96" y="12" width="12" height="12" transform="rotate(0,102,18)"/><rect x="96" y="24" width="12" height="12" transform="rotate(0,102,30)"/><rect x="96" y="48" width="12" height="12" transform="rotate(0,102,54)"/><rect x="96" y="60" width="12" height="12" transform="rotate(0,102,66)"/><rect x="96" y="72" width="12" height="12" transform="rotate(0,102,78)"/><rect x="96" y="84" width="12" height="12" transform="rotate(0,102,90)"/><rect x="96" y="96" width="12" height="12" transform="rotate(0,102,102)"/><rect x="96" y="144" width="12" height="12" transform="rotate(0,102,150)"/><rect x="96" y="156" width="12" height="12" transform="rotate(0,102,162)"/><rect x="96" y="168" width="12" height="12" transform="rotate(0,102,174)"/><rect x="96" y="180" width="12" height="12" transform="rotate(0,102,186)"/><rect x="96" y="192" width="12" height="12" transform="rotate(0,102,198)"/><rect x="96" y="204" width="12" height="12" transform="rotate(0,102,210)"/><rect x="96" y="216" width="12" height="12" transform="rotate(0,102,222)"/><rect x="96" y="264" width="12" height="12" transform="rotate(0,102,270)"/><rect x="108" y="0" width="12" height="12" transform="rotate(0,114,6)"/><rect x="108" y="12" width="12" height="12" transform="rotate(0,114,18)"/><rect x="108" y="48" width="12" height="12" transform="rotate(0,114,54)"/><rect x="108" y="60" width="12" height="12" transform="rotate(0,114,66)"/><rect x="108" y="96" width="12" height="12" transform="rotate(0,114,102)"/><rect x="108" y="108" width="12" height="12" transform="rotate(0,114,114)"/><rect x="108" y="132" width="12" height="12" transform="rotate(0,114,138)"/><rect x="108" y="144" width="12" height="12" transform="rotate(0,114,150)"/><rect x="108" y="156" width="12" height="12" transform="rotate(0,114,162)"/><rect x="108" y="168" width="12" height="12" transform="rotate(0,114,174)"/><rect x="108" y="192" width="12" height="12" transform="rotate(0,114,198)"/><rect x="108" y="204" width="12" height="12" transform="rotate(0,114,210)"/><rect x="108" y="216" width="12" height="12" transform="rotate(0,114,222)"/><rect x="108" y="288" width="12" height="12" transform="rotate(0,114,294)"/><rect x="120" y="60" width="12" height="12" transform="rotate(0,126,66)"/><rect x="120" y="72" width="12" height="12" transform="rotate(0,126,78)"/><rect x="120" y="96" width="12" height="12" transform="rotate(0,126,102)"/><rect x="120" y="120" width="12" height="12" transform="rotate(0,126,126)"/><rect x="120" y="132" width="12" height="12" transform="rotate(0,126,138)"/><rect x="120" y="144" width="12" height="12" transform="rotate(0,126,150)"/><rect x="120" y="156" width="12" height="12" transform="rotate(0,126,162)"/><rect x="120" y="168" width="12" height="12" transform="rotate(0,126,174)"/><rect x="120" y="204" width="12" height="12" transform="rotate(0,126,210)"/><rect x="120" y="216" width="12" height="12" transform="rotate(0,126,222)"/><rect x="120" y="228" width="12" height="12" transform="rotate(0,126,234)"/><rect x="120" y="240" width="12" height="12" transform="rotate(0,126,246)"/><rect x="120" y="264" width="12" height="12" transform="rotate(0,126,270)"/><rect x="120" y="276" width="12" height="12" transform="rotate(0,126,282)"/><rect x="120" y="288" width="12" height="12" transform="rotate(0,126,294)"/><rect x="132" y="0" width="12" height="12" transform="rotate(0,138,6)"/><rect x="132" y="12" width="12" height="12" transform="rotate(0,138,18)"/><rect x="132" y="36" width="12" height="12" transform="rotate(0,138,42)"/><rect x="132" y="48" width="12" height="12" transform="rotate(0,138,54)"/><rect x="132" y="96" width="12" height="12" transform="rotate(0,138,102)"/><rect x="132" y="108" width="12" height="12" transform="rotate(0,138,114)"/><rect x="132" y="120" width="12" height="12" transform="rotate(0,138,126)"/><rect x="132" y="144" width="12" height="12" transform="rotate(0,138,150)"/><rect x="132" y="156" width="12" height="12" transform="rotate(0,138,162)"/><rect x="132" y="168" width="12" height="12" transform="rotate(0,138,174)"/><rect x="132" y="240" width="12" height="12" transform="rotate(0,138,246)"/><rect x="132" y="276" width="12" height="12" transform="rotate(0,138,282)"/><rect x="144" y="0" width="12" height="12" transform="rotate(0,150,6)"/><rect x="144" y="36" width="12" height="12" transform="rotate(0,150,42)"/><rect x="144" y="48" width="12" height="12" transform="rotate(0,150,54)"/><rect x="144" y="72" width="12" height="12" transform="rotate(0,150,78)"/><rect x="144" y="120" width="12" height="12" transform="rotate(0,150,126)"/><rect x="144" y="132" width="12" height="12" transform="rotate(0,150,138)"/><rect x="144" y="144" width="12" height="12" transform="rotate(0,150,150)"/><rect x="144" y="156" width="12" height="12" transform="rotate(0,150,162)"/><rect x="144" y="192" width="12" height="12" transform="rotate(0,150,198)"/><rect x="144" y="216" width="12" height="12" transform="rotate(0,150,222)"/><rect x="144" y="252" width="12" height="12" transform="rotate(0,150,258)"/><rect x="144" y="276" width="12" height="12" transform="rotate(0,150,282)"/><rect x="144" y="288" width="12" height="12" transform="rotate(0,150,294)"/><rect x="156" y="12" width="12" height="12" transform="rotate(0,162,18)"/><rect x="156" y="36" width="12" height="12" transform="rotate(0,162,42)"/><rect x="156" y="60" width="12" height="12" transform="rotate(0,162,66)"/><rect x="156" y="84" width="12" height="12" transform="rotate(0,162,90)"/><rect x="156" y="120" width="12" height="12" transform="rotate(0,162,126)"/><rect x="156" y="132" width="12" height="12" transform="rotate(0,162,138)"/><rect x="156" y="156" width="12" height="12" transform="rotate(0,162,162)"/><rect x="156" y="192" width="12" height="12" transform="rotate(0,162,198)"/><rect x="156" y="204" width="12" height="12" transform="rotate(0,162,210)"/><rect x="156" y="216" width="12" height="12" transform="rotate(0,162,222)"/><rect x="156" y="252" width="12" height="12" transform="rotate(0,162,258)"/><rect x="156" y="288" width="12" height="12" transform="rotate(0,162,294)"/><rect x="168" y="0" width="12" height="12" transform="rotate(0,174,6)"/><rect x="168" y="48" width="12" height="12" transform="rotate(0,174,54)"/><rect x="168" y="72" width="12" height="12" transform="rotate(0,174,78)"/><rect x="168" y="108" width="12" height="12" transform="rotate(0,174,114)"/><rect x="168" y="120" width="12" height="12" transform="rotate(0,174,126)"/><rect x="168" y="192" width="12" height="12" transform="rotate(0,174,198)"/><rect x="168" y="204" width="12" height="12" transform="rotate(0,174,210)"/><rect x="168" y="228" width="12" height="12" transform="rotate(0,174,234)"/><rect x="168" y="264" width="12" height="12" transform="rotate(0,174,270)"/><rect x="168" y="276" width="12" height="12" transform="rotate(0,174,282)"/><rect x="168" y="288" width="12" height="12" transform="rotate(0,174,294)"/><rect x="180" y="12" width="12" height="12" transform="rotate(0,186,18)"/><rect x="180" y="36" width="12" height="12" transform="rotate(0,186,42)"/><rect x="180" y="84" width="12" height="12" transform="rotate(0,186,90)"/><rect x="180" y="96" width="12" height="12" transform="rotate(0,186,102)"/><rect x="180" y="108" width="12" height="12" transform="rotate(0,186,114)"/><rect x="180" y="120" width="12" height="12" transform="rotate(0,186,126)"/><rect x="180" y="144" width="12" height="12" transform="rotate(0,186,150)"/><rect x="180" y="156" width="12" height="12" transform="rotate(0,186,162)"/><rect x="180" y="192" width="12" height="12" transform="rotate(0,186,198)"/><rect x="180" y="240" width="12" height="12" transform="rotate(0,186,246)"/><rect x="180" y="276" width="12" height="12" transform="rotate(0,186,282)"/><rect x="192" y="0" width="12" height="12" transform="rotate(0,198,6)"/><rect x="192" y="24" width="12" height="12" transform="rotate(0,198,30)"/><rect x="192" y="48" width="12" height="12" transform="rotate(0,198,54)"/><rect x="192" y="72" width="12" height="12" transform="rotate(0,198,78)"/><rect x="192" y="84" width="12" height="12" transform="rotate(0,198,90)"/><rect x="192" y="96" width="12" height="12" transform="rotate(0,198,102)"/><rect x="192" y="144" width="12" height="12" transform="rotate(0,198,150)"/><rect x="192" y="156" width="12" height="12" transform="rotate(0,198,162)"/><rect x="192" y="180" width="12" height="12" transform="rotate(0,198,186)"/><rect x="192" y="192" width="12" height="12" transform="rotate(0,198,198)"/><rect x="192" y="204" width="12" height="12" transform="rotate(0,198,210)"/><rect x="192" y="216" width="12" height="12" transform="rotate(0,198,222)"/><rect x="192" y="228" width="12" height="12" transform="rotate(0,198,234)"/><rect x="192" y="240" width="12" height="12" transform="rotate(0,198,246)"/><rect x="192" y="252" width="12" height="12" transform="rotate(0,198,258)"/><rect x="204" y="96" width="12" height="12" transform="rotate(0,210,102)"/><rect x="204" y="144" width="12" height="12" transform="rotate(0,210,150)"/><rect x="204" y="156" width="12" height="12" transform="rotate(0,210,162)"/><rect x="204" y="180" width="12" height="12" transform="rotate(0,210,186)"/><rect x="204" y="192" width="12" height="12" transform="rotate(0,210,198)"/><rect x="204" y="240" width="12" height="12" transform="rotate(0,210,246)"/><rect x="204" y="252" width="12" height="12" transform="rotate(0,210,258)"/><rect x="204" y="276" width="12" height="12" transform="rotate(0,210,282)"/><rect x="204" y="288" width="12" height="12" transform="rotate(0,210,294)"/><rect x="216" y="96" width="12" height="12" transform="rotate(0,222,102)"/><rect x="216" y="108" width="12" height="12" transform="rotate(0,222,114)"/><rect x="216" y="120" width="12" height="12" transform="rotate(0,222,126)"/><rect x="216" y="156" width="12" height="12" transform="rotate(0,222,162)"/><rect x="216" y="180" width="12" height="12" transform="rotate(0,222,186)"/><rect x="216" y="192" width="12" height="12" transform="rotate(0,222,198)"/><rect x="216" y="216" width="12" height="12" transform="rotate(0,222,222)"/><rect x="216" y="240" width="12" height="12" transform="rotate(0,222,246)"/><rect x="216" y="252" width="12" height="12" transform="rotate(0,222,258)"/><rect x="216" y="276" width="12" height="12" transform="rotate(0,222,282)"/><rect x="216" y="288" width="12" height="12" transform="rotate(0,222,294)"/><rect x="228" y="96" width="12" height="12" transform="rotate(0,234,102)"/><rect x="228" y="108" width="12" height="12" transform="rotate(0,234,114)"/><rect x="228" y="132" width="12" height="12" transform="rotate(0,234,138)"/><rect x="228" y="156" width="12" height="12" transform="rotate(0,234,162)"/><rect x="228" y="168" width="12" height="12" transform="rotate(0,234,174)"/><rect x="228" y="180" width="12" height="12" transform="rotate(0,234,186)"/><rect x="228" y="192" width="12" height="12" transform="rotate(0,234,198)"/><rect x="228" y="240" width="12" height="12" transform="rotate(0,234,246)"/><rect x="228" y="252" width="12" height="12" transform="rotate(0,234,258)"/><rect x="228" y="276" width="12" height="12" transform="rotate(0,234,282)"/><rect x="228" y="288" width="12" height="12" transform="rotate(0,234,294)"/><rect x="240" y="96" width="12" height="12" transform="rotate(0,246,102)"/><rect x="240" y="192" width="12" height="12" transform="rotate(0,246,198)"/><rect x="240" y="204" width="12" height="12" transform="rotate(0,246,210)"/><rect x="240" y="216" width="12" height="12" transform="rotate(0,246,222)"/><rect x="240" y="228" width="12" height="12" transform="rotate(0,246,234)"/><rect x="240" y="240" width="12" height="12" transform="rotate(0,246,246)"/><rect x="240" y="252" width="12" height="12" transform="rotate(0,246,258)"/><rect x="252" y="120" width="12" height="12" transform="rotate(0,258,126)"/><rect x="252" y="132" width="12" height="12" transform="rotate(0,258,138)"/><rect x="252" y="144" width="12" height="12" transform="rotate(0,258,150)"/><rect x="252" y="180" width="12" height="12" transform="rotate(0,258,186)"/><rect x="252" y="192" width="12" height="12" transform="rotate(0,258,198)"/><rect x="252" y="228" width="12" height="12" transform="rotate(0,258,234)"/><rect x="252" y="240" width="12" height="12" transform="rotate(0,258,246)"/><rect x="252" y="252" width="12" height="12" transform="rotate(0,258,258)"/><rect x="252" y="264" width="12" height="12" transform="rotate(0,258,270)"/><rect x="264" y="96" width="12" height="12" transform="rotate(0,270,102)"/><rect x="264" y="108" width="12" height="12" transform="rotate(0,270,114)"/><rect x="264" y="120" width="12" height="12" transform="rotate(0,270,126)"/><rect x="264" y="144" width="12" height="12" transform="rotate(0,270,150)"/><rect x="264" y="156" width="12" height="12" transform="rotate(0,270,162)"/><rect x="264" y="168" width="12" height="12" transform="rotate(0,270,174)"/><rect x="264" y="192" width="12" height="12" transform="rotate(0,270,198)"/><rect x="264" y="204" width="12" height="12" transform="rotate(0,270,210)"/><rect x="264" y="240" width="12" height="12" transform="rotate(0,270,246)"/><rect x="264" y="288" width="12" height="12" transform="rotate(0,270,294)"/><rect x="276" y="96" width="12" height="12" transform="rotate(0,282,102)"/><rect x="276" y="120" width="12" height="12" transform="rotate(0,282,126)"/><rect x="276" y="132" width="12" height="12" transform="rotate(0,282,138)"/><rect x="276" y="144" width="12" height="12" transform="rotate(0,282,150)"/><rect x="276" y="156" width="12" height="12" transform="rotate(0,282,162)"/><rect x="276" y="192" width="12" height="12" transform="rotate(0,282,198)"/><rect x="276" y="204" width="12" height="12" transform="rotate(0,282,210)"/><rect x="276" y="240" width="12" height="12" transform="rotate(0,282,246)"/><rect x="276" y="252" width="12" height="12" transform="rotate(0,282,258)"/><rect x="276" y="276" width="12" height="12" transform="rotate(0,282,282)"/><rect x="288" y="96" width="12" height="12" transform="rotate(0,294,102)"/><rect x="288" y="120" width="12" height="12" transform="rotate(0,294,126)"/><rect x="288" y="180" width="12" height="12" transform="rotate(0,294,186)"/><rect x="288" y="192" width="12" height="12" transform="rotate(0,294,198)"/><rect x="288" y="204" width="12" height="12" transform="rotate(0,294,210)"/><rect x="288" y="216" width="12" height="12" transform="rotate(0,294,222)"/><rect x="288" y="228" width="12" height="12" transform="rotate(0,294,234)"/><rect x="288" y="276" width="12" height="12" transform="rotate(0,294,282)"/><rect x="288" y="288" width="12" height="12" transform="rotate(0,294,294)"/></g><g class="corners-square-color-0-0"><path clip-rule="evenodd" d="M 0 30v 24a 30 30, 0, 0, 0, 30 30h 24a 30 30, 0, 0, 0, 30 -30v -24a 30 30, 0, 0, 0, -30 -30h -24a 30 30, 0, 0, 0, -30 30M 30 12h 24a 18 18, 0, 0, 1, 18 18v 24a 18 18, 0, 0, 1, -18 18h -24a 18 18, 0, 0, 1, -18 -18v -24a 18 18, 0, 0, 1, 18 -18" transform="rotate(0,42,42)"/></g><g class="corners-dot-color-0-0"><circle cx="42" cy="42" r="18" transform="rotate(0,42,42)"/></g><g class="corners-square-color-1-0"><path clip-rule="evenodd" d="M 216 30v 24a 30 30, 0, 0, 0, 30 30h 24a 30 30, 0, 0, 0, 30 -30v -24a 30 30, 0, 0, 0, -30 -30h -24a 30 30, 0, 0, 0, -30 30M 246 12h 24a 18 18, 0, 0, 1, 18 18v 24a 18 18, 0, 0, 1, -18 18h -24a 18 18, 0, 0, 1, -18 -18v -24a 18 18, 0, 0, 1, 18 -18" transform="rotate(90,258,42)"/></g><g class="corners-dot-color-1-0"><circle cx="258" cy="42" r="18" transform="rotate(90,258,42)"/></g><g class="corners-square-color-0-1"><path clip-rule="evenodd" d="M 0 246v 24a 30 30, 0, 0, 0, 30 30h 24a 30 30, 0, 0, 0, 30 -30v -24a 30 30, 0, 0, 0, -30 -30h -24a 30 30, 0, 0, 0, -30 30M 30 228h 24a 18 18, 0, 0, 1, 18 18v 24a 18 18, 0, 0, 1, -18 18h -24a 18 18, 0, 0, 1, -18 -18v -24a 18 18, 0, 0, 1, 18 -18" transform="rotate(-90,42,258)"/></g><g class="corners-dot-color-0-1"><circle cx="42" cy="258" r="18" transform="rotate(-90,42,258)"/></g><svg id="instagramLogotype" xmlns="http://www.w3.org/2000/svg" viewBox="0 0 51 50" x="134" y="134.5" width="32px" height="31px"><circle cx="25.5" cy="25" r="25" fill="red"/><rect width="50" height="50" x="0.5" fill="url(#ainst)" rx="15"/><path fill="#fff" d="M26.002 7c-4.753 0-5.35.02-7.216.106-1.863.085-3.135.38-4.248.813a8.57 8.57 0 0 0-3.1 2.018 8.591 8.591 0 0 0-2.02 3.1c-.433 1.113-.729 2.385-.813 4.247C8.522 19.15 8.5 19.747 8.5 24.5s.021 5.348.106 7.214c.085 1.863.38 3.135.813 4.248a8.575 8.575 0 0 0 2.018 3.1 8.57 8.57 0 0 0 3.1 2.02c1.113.432 2.385.727 4.247.813C20.651 41.98 21.247 42 26 42s5.347-.02 7.214-.105c1.863-.086 3.136-.38 4.25-.813a8.562 8.562 0 0 0 3.097-2.02 8.59 8.59 0 0 0 2.02-3.1c.43-1.113.726-2.385.813-4.247.084-1.867.106-2.462.106-7.215s-.022-5.349-.106-7.216c-.087-1.863-.383-3.134-.813-4.247a8.588 8.588 0 0 0-2.02-3.1 8.552 8.552 0 0 0-3.099-2.018c-1.115-.433-2.388-.728-4.25-.813C31.344 7.02 30.75 7 25.995 7h.006Zm-1.57 3.154h1.57c4.672 0 5.226.016 7.071.1 1.706.078 2.633.363 3.25.603a5.412 5.412 0 0 1 2.01 1.309 5.431 5.431 0 0 1 1.31 2.012c.24.616.525 1.543.603 3.249.084 1.845.102 2.399.102 7.07 0 4.67-.018 5.224-.102 7.069-.078 1.706-.363 2.632-.603 3.248a5.41 5.41 0 0 1-1.31 2.01 5.412 5.412 0 0 1-2.01 1.31c-.617.24-1.544.524-3.25.602-1.845.084-2.399.102-7.071.102-4.673 0-5.227-.018-7.072-.102-1.706-.078-2.632-.364-3.25-.603a5.42 5.42 0 0 1-2.012-1.309 5.424 5.424 0 0 1-1.31-2.011c-.24-.617-.525-1.543-.602-3.249-.084-1.845-.1-2.399-.1-7.072 0-4.674.016-5.225.1-7.07.078-1.706.363-2.632.602-3.249.318-.816.697-1.4 1.31-2.012a5.433 5.433 0 0 1 2.013-1.31c.616-.24 1.543-.525 3.25-.603 1.613-.073 2.24-.095 5.5-.099v.005Zm10.911 2.905a2.1 2.1 0 1 0 0 4.201 2.1 2.1 0 0 0 0-4.201Zm-9.341 2.454a8.986 8.986 0 1 0 0 17.972 8.985 8.985 0 0 0 8.985-8.985 8.987 8.987 0 0 0-8.986-8.987Zm0 3.154a5.833 5.833 0 1 1 0 11.667 5.833 5.833 0 0 1 0-11.667Z"/><defs><linearGradient id="ainst" x1="9.875" x2="36.437" y1="0" y2="50" gradientUnits="userSpaceOnUse"><stop stop-color="#405DE6"/><stop offset="0.151" stop-color="#5B51D8"/><stop offset="0.323" stop-color="#833AB4"/><stop offset="0.495" stop-color="#C13584"/><stop offset="0.646" stop-color="#E1306C"/><stop offset="0.802" stop-color="#F77737"/><stop offset="1" stop-color="#FFDC80"/></linearGradient></defs></svg></svg></g></svg></svg>